HIERARCHY
ROOT hip
{
  OFFSET 0 0 0
  CHANNELS 6 Xposition Yposition Zposition Zrotation Yrotation Xrotation
  JOINT abdomen
  {
    OFFSET 0 20.6881 -0.73152
    CHANNELS 3 Zrotation Xrotation Yrotation
    JOINT chest
    {
      OFFSET 0 11.7043 -0.48768
      CHANNELS 3 Zrotation Xrotation Yrotation
      JOINT neck
      {
        OFFSET 0 22.1894 -2.19456
        CHANNELS 3 Zrotation Xrotation Yrotation
        JOINT head
        {
          OFFSET -0.24384 7.07133 1.2192
          CHANNELS 3 Zrotation Xrotation Yrotation
          JOINT leftEye
          {
            OFFSET 4.14528 8.04674 8.04672
            CHANNELS 3 Zrotation Xrotation Yrotation
            End Site
            {
              OFFSET 1 0 0
            }
          }
          JOINT rightEye
          {
            OFFSET -3.6576 8.04674 8.04672
            CHANNELS 3 Zrotation Xrotation Yrotation
            End Site
            {
              OFFSET 1 0 0
            }
          }
        }
      }
      JOINT rCollar
      {
        OFFSET -2.68224 19.2634 -4.8768
        CHANNELS 3 Zrotation Xrotation Yrotation
        JOINT rShldr
        {
          OFFSET -8.77824 -1.95073 1.46304
          CHANNELS 3 Zrotation Xrotation Yrotation
          JOINT rForeArm
          {
            OFFSET -28.1742 -1.7115 0.48768
            CHANNELS 3 Zrotation Xrotation Yrotation
            JOINT rHand
            {
              OFFSET -22.5879 0.773209 7.07136
              CHANNELS 3 Zrotation Xrotation Yrotation
              JOINT rThumb1
              {
                OFFSET -1.2192 -0.487915 3.41376
                CHANNELS 3 Zrotation Xrotation Yrotation
                JOINT rThumb2
                {
                  OFFSET -3.37035 -0.52449 3.41376
                  CHANNELS 3 Zrotation Xrotation Yrotation
                  End Site
                  {
                    OFFSET -1.78271 -1.18214 1.43049
                  }
                }
              }
              JOINT rIndex1
              {
                OFFSET -7.75947 0.938293 5.60832
                CHANNELS 3 Zrotation Xrotation Yrotation
                JOINT rIndex2
                {
                  OFFSET -2.54057 -0.884171 1.56538
                  CHANNELS 3 Zrotation Xrotation Yrotation
                  End Site
                  {
                    OFFSET -1.62519 -0.234802 1.16502
                  }
                }
              }
              JOINT rMid1
              {
                OFFSET -8.24714 1.18213 3.41376
                CHANNELS 3 Zrotation Xrotation Yrotation
                JOINT rMid2
                {
                  OFFSET -3.10165 -0.590103 1.0647
                  CHANNELS 3 Zrotation Xrotation Yrotation
                  End Site
                  {
                    OFFSET -2.48547 -0.328903 0.83742
                  }
                }
              }
              JOINT rRing1
              {
                OFFSET -8.82822 0.546677 1.51678
                CHANNELS 3 Zrotation Xrotation Yrotation
                JOINT rRing2
                {
                  OFFSET -2.60934 -0.819778 -0.0198488
                  CHANNELS 3 Zrotation Xrotation Yrotation
                  End Site
                  {
                    OFFSET -2.33842 -0.294052 0.168128
                  }
                }
              }
              JOINT rPinky1
              {
                OFFSET -8.27202 -0.0477905 -0.4584
                CHANNELS 3 Zrotation Xrotation Yrotation
                JOINT rPinky2
                {
                  OFFSET -1.82734 -0.647385 -0.700984
                  CHANNELS 3 Zrotation Xrotation Yrotation
                  End Site
                  {
                    OFFSET -1.69225 -0.51767 -0.607171
                  }
                }
              }
            }
          }
        }
      }
      JOINT lCollar
      {
        OFFSET 2.68224 19.2634 -4.8768
        CHANNELS 3 Zrotation Xrotation Yrotation
        JOINT lShldr
        {
          OFFSET 8.77824 -1.95073 1.46304
          CHANNELS 3 Zrotation Xrotation Yrotation
          JOINT lForeArm
          {
            OFFSET 28.1742 -1.7115 0.48768
            CHANNELS 3 Zrotation Xrotation Yrotation
            JOINT lHand
            {
              OFFSET 22.5879 0.773209 7.07136
              CHANNELS 3 Zrotation Xrotation Yrotation
              JOINT lThumb1
              {
                OFFSET 1.2192 -0.487915 3.41376
                CHANNELS 3 Zrotation Xrotation Yrotation
                JOINT lThumb2
                {
                  OFFSET 3.37035 -0.52449 3.41376
                  CHANNELS 3 Zrotation Xrotation Yrotation
                  End Site
                  {
                    OFFSET 1.78271 -1.18214 1.43049
                  }
                }
              }
              JOINT lIndex1
              {
                OFFSET 7.75947 0.938293 5.60832
                CHANNELS 3 Zrotation Xrotation Yrotation
                JOINT lIndex2
                {
                  OFFSET 2.54057 -0.884171 1.56538
                  CHANNELS 3 Zrotation Xrotation Yrotation
                  End Site
                  {
                    OFFSET 1.62519 -0.234802 1.16502
                  }
                }
              }
              JOINT lMid1
              {
                OFFSET 8.24714 1.18213 3.41376
                CHANNELS 3 Zrotation Xrotation Yrotation
                JOINT lMid2
                {
                  OFFSET 3.10165 -0.590103 1.0647
                  CHANNELS 3 Zrotation Xrotation Yrotation
                  End Site
                  {
                    OFFSET 2.48547 -0.328903 0.83742
                  }
                }
              }
              JOINT lRing1
              {
                OFFSET 8.82822 0.546677 1.51678
                CHANNELS 3 Zrotation Xrotation Yrotation
                JOINT lRing2
                {
                  OFFSET 2.60934 -0.819778 -0.0198488
                  CHANNELS 3 Zrotation Xrotation Yrotation
                  End Site
                  {
                    OFFSET 2.33842 -0.294052 0.168128
                  }
                }
              }
              JOINT lPinky1
              {
                OFFSET 8.27202 -0.0477905 -0.4584
                CHANNELS 3 Zrotation Xrotation Yrotation
                JOINT lPinky2
                {
                  OFFSET 1.82734 -0.647385 -0.700984
                  CHANNELS 3 Zrotation Xrotation Yrotation
                  End Site
                  {
                    OFFSET 1.69225 -0.51767 -0.607171
                  }
                }
              }
            }
          }
        }
      }
    }
  }
  JOINT rButtock
  {
    OFFSET -8.77824 4.35084 1.2192
    CHANNELS 3 Zrotation Xrotation Yrotation
    JOINT rThigh
    {
      OFFSET 0 -1.70687 -2.19456
      CHANNELS 3 Zrotation Xrotation Yrotation
      JOINT rShin
      {
        OFFSET 0 -36.8199 0.73152
        CHANNELS 3 Zrotation Xrotation Yrotation
        JOINT rFoot
        {
          OFFSET 0.73152 -45.1104 -5.12064
          CHANNELS 3 Zrotation Xrotation Yrotation
          End Site
          {
            OFFSET -1.1221 -3.69964 12.103
          }
        }
      }
    }
  }
  JOINT lButtock
  {
    OFFSET 8.77824 4.35084 1.2192
    CHANNELS 3 Zrotation Xrotation Yrotation
    JOINT lThigh
    {
      OFFSET 0 -1.70687 -2.19456
      CHANNELS 3 Zrotation Xrotation Yrotation
      JOINT lShin
      {
        OFFSET 0 -36.8199 0.73152
        CHANNELS 3 Zrotation Xrotation Yrotation
        JOINT lFoot
        {
          OFFSET -0.73152 -45.1104 -5.12064
          CHANNELS 3 Zrotation Xrotation Yrotation
          End Site
          {
            OFFSET 1.1221 -3.69964 12.103
          }
        }
      }
    }
  }
}
MOTION
Frames:	6
Frame Time:	0.00833333
81.279 86.6625 0.548807 -107.102 82.9579 -99.8126 4.61615 9.82218 7.89112 -5.03488 -0.277319 2.27222 5.23058 4.38511 1.25927 -5.44852 -37.004 0.239006 -0.0 0.0 0.0 -0.0 0.0 0.0 2.32302e-13 2.14259e-12 5.43893e-14 82.3365 57.2008 -11.9 -24.1809 -48.7936 102.631 -1.25523 -29.8507 -4.63503 -4.61373e-11 -1.66404e-09 -1.89063e-09 -3.57777e-11 -2.88484e-09 -3.27087e-09 -4.61291e-11 -1.66404e-09 -1.89064e-09 7.73091 5.47488 0.417314 -4.61385e-11 -1.66403e-09 -1.89062e-09 2.90554 0.965183 0.102902 -4.61357e-11 -1.66404e-09 -1.89063e-09 10.2786 0.731801 0.0259123 -4.61448e-11 -1.66404e-09 -1.89062e-09 2.22167 -0.733487 -0.20892 2.32347e-13 2.14258e-12 5.40694e-14 -102.483 11.9866 53.6738 26.8034 -44.4736 -92.4578 0.166036 -11.9797 1.70594 -2.47784e-10 -4.05524e-10 -3.31381e-10 -4.25936e-10 -7.00682e-10 -5.75534e-10 -2.47785e-10 -4.05524e-10 -3.31372e-10 -7.73091 5.47488 -0.417314 -2.47782e-10 -4.05524e-10 -3.31378e-10 -2.90554 0.965183 -0.102902 -2.47789e-10 -4.05523e-10 -3.31379e-10 -10.2786 0.731801 -0.0259123 -2.4778e-10 -4.05523e-10 -3.31382e-10 -2.22167 -0.733487 0.20892 -2.03217e-16 0.0 -3.88251e-19 13.9692 9.36009 -1.80089 -0.541522 50.7013 1.27863 -4.70367 -1.41069 -27.0734 2.03217e-16 0.0 3.88251e-19 -1.87491 -40.9262 -15.5784 0.283148 31.3113 -0.171488 2.86234 -14.6768 7.83849
86.7019 85.2648 0.667744 -104.397 83.5562 -97.7721 2.7662 10.5146 7.97353 -4.75571 -0.499495 2.21396 5.21889 4.69608 1.32252 -4.99241 -36.9999 0.530545 -0.0 0.0 0.0 -0.0 0.0 0.0 1.17993e-13 9.57261e-13 7.41677e-15 85.6445 58.0157 -14.7941 -24.4417 -48.4554 101.773 -1.2023 -29.2578 -4.52512 -3.88607e-10 -2.36673e-09 -2.41296e-09 -6.17666e-10 -4.10639e-09 -4.17984e-09 -3.88596e-10 -2.36673e-09 -2.41296e-09 7.73091 5.47488 0.417314 -3.88609e-10 -2.36672e-09 -2.41294e-09 2.90554 0.965183 0.102902 -3.88608e-10 -2.36674e-09 -2.41296e-09 10.2786 0.731801 0.0259123 -3.88617e-10 -2.36673e-09 -2.41295e-09 2.22167 -0.733487 -0.20892 1.18126e-13 9.57257e-13 7.07083e-15 -101.592 12.6337 50.6666 26.8192 -44.4615 -92.396 0.243318 -14.1713 2.03149 -1.76767e-10 2.33887e-10 1.65195e-10 -3.09444e-10 4.05811e-10 2.85757e-10 -1.76767e-10 2.33888e-10 1.65203e-10 -7.73091 5.47488 -0.417314 -1.76765e-10 2.33889e-10 1.65201e-10 -2.90554 0.965183 -0.102902 -1.76773e-10 2.3389e-10 1.65199e-10 -10.2786 0.731801 -0.0259123 -1.76764e-10 2.33891e-10 1.65199e-10 -2.22167 -0.733487 0.20892 -2.03217e-16 0.0 -3.88251e-19 11.4236 5.68496 -2.81774 -0.962946 59.8298 1.71869 -5.2975 -2.72972 -25.0909 2.03217e-16 0.0 3.88251e-19 -2.73019 -40.0105 -13.6836 0.336077 34.0943 -0.0160111 1.83019 -11.85 5.57126
92.1353 83.7614 0.700952 -97.4521 84.6422 -91.4613 0.620907 11.1623 7.93399 -4.41862 -0.79435 2.11572 5.15902 5.07147 1.36494 -4.46428 -37.2472 0.825674 -0.0 0.0 0.0 -0.0 0.0 0.0 4.60357e-14 1.67576e-13 -2.68359e-14 89.2486 58.0054 -18.0447 -25.103 -47.8317 99.5775 -1.04718 -27.7416 -4.23892 -5.69122e-10 -2.63002e-09 -2.69784e-09 -9.25338e-10 -4.56544e-09 -4.67556e-09 -5.69108e-10 -2.63002e-09 -2.69784e-09 7.73091 5.47488 0.417314 -5.69124e-10 -2.63001e-09 -2.69781e-09 2.90554 0.965183 0.102902 -5.69124e-10 -2.63002e-09 -2.69784e-09 10.2786 0.731801 0.0259123 -5.69132e-10 -2.63002e-09 -2.69783e-09 2.22167 -0.733487 -0.20892 4.62035e-14 1.67576e-13 -2.71838e-14 -100.736 13.9759 47.1902 26.854 -44.3957 -92.2343 0.309216 -15.6275 2.25302 -7.70203e-11 5.48002e-10 5.21678e-10 -1.41126e-10 9.49688e-10 9.03748e-10 -7.70191e-11 5.48002e-10 5.21684e-10 -7.73091 5.47488 -0.417314 -7.70174e-11 5.48005e-10 5.21684e-10 -2.90554 0.965183 -0.102902 -7.70256e-11 5.48006e-10 5.21682e-10 -10.2786 0.731801 -0.0259123 -7.70167e-11 5.48007e-10 5.21684e-10 -2.22167 -0.733487 0.20892 -2.03217e-16 0.0 -3.88251e-19 8.58401 1.38688 -3.67918 -1.69114 68.0011 2.4394 -5.5464 -3.56688 -23.3225 2.03217e-16 0.0 3.88251e-19 -4.11794 -38.7239 -12.3423 0.375573 36.8127 0.0757547 1.26933 -10.5888 3.9522
97.3078 82.514 0.618221 -94.807 85.8461 -89.0328 -2.21133 11.8416 7.80856 -3.99598 -1.24414 1.97332 4.9914 5.58667 1.35264 -3.66511 -37.9813 1.14766 -0.0 0.0 0.0 -0.0 0.0 0.0 4.05666e-14 -6.98434e-14 -4.776e-14 92.9946 56.7492 -21.4166 -26.229 -46.5205 95.5267 -0.736341 -24.332 -3.62487 -4.53141e-10 -2.17619e-09 -2.57232e-09 -7.30627e-10 -3.78024e-09 -4.45682e-09 -4.53124e-10 -2.17619e-09 -2.57233e-09 7.73091 5.47488 0.417314 -4.53142e-10 -2.17618e-09 -2.5723e-09 2.90554 0.965183 0.102902 -4.53141e-10 -2.17619e-09 -2.57232e-09 10.2786 0.731801 0.0259123 -4.53148e-10 -2.17619e-09 -2.57231e-09 2.22167 -0.733487 -0.20892 4.06816e-14 -6.9842e-14 -4.80733e-14 -99.6204 16.4178 43.0276 26.9476 -44.153 -91.7504 0.336545 -16.1592 2.33514 1.17523e-10 3.42541e-10 6.07673e-10 1.94655e-10 5.95369e-10 1.05259e-09 1.17524e-10 3.42541e-10 6.07678e-10 -7.73091 5.47488 -0.417314 1.17526e-10 3.42545e-10 6.07679e-10 -2.90554 0.965183 -0.102902 1.17518e-10 3.42545e-10 6.07677e-10 -10.2786 0.731801 -0.0259123 1.17527e-10 3.42546e-10 6.07679e-10 -2.22167 -0.733487 0.20892 -2.03217e-16 0.0 -3.88251e-19 5.07363 -3.85513 -4.43871 -3.13469 75.44 3.83203 -5.32824 -3.53413 -21.6814 2.03217e-16 0.0 3.88251e-19 -6.46415 -37.2052 -11.7924 0.429968 39.8072 0.073255 1.07028 -11.7865 3.07587
102.333 81.1149 -0.0107706 -149.471 89.5163 -144.088 -5.64674 12.5771 7.60581 -3.48235 -1.81729 1.79086 4.76139 6.23094 1.31995 -2.70259 -39.0756 1.51869 -0.0 0.0 0.0 -0.0 0.0 0.0 6.95619e-14 -4.40934e-14 -6.42478e-14 96.5749 54.6039 -24.6687 -27.3516 -44.3105 90.5152 -0.423968 -19.5636 -2.83808 -1.47235e-10 -1.23243e-09 -2.15116e-09 -2.15096e-10 -2.1452e-09 -3.72381e-09 -1.47217e-10 -1.23243e-09 -2.15118e-09 7.73091 5.47488 0.417314 -1.47236e-10 -1.23242e-09 -2.15115e-09 2.90554 0.965183 0.102902 -1.47233e-10 -1.23243e-09 -2.15116e-09 10.2786 0.731801 0.0259123 -1.47238e-10 -1.23243e-09 -2.15115e-09 2.22167 -0.733487 -0.20892 6.95671e-14 -4.40921e-14 -6.45056e-14 -97.9694 19.9688 38.2123 27.0888 -43.7437 -90.9728 0.341502 -16.2432 2.34829 3.92295e-10 -1.79725e-10 5.60334e-10 6.71034e-10 -3.06541e-10 9.70115e-10 3.92296e-10 -1.79726e-10 5.60338e-10 -7.73091 5.47488 -0.417314 3.92298e-10 -1.79722e-10 5.6034e-10 -2.90554 0.965183 -0.102902 3.92291e-10 -1.79722e-10 5.60337e-10 -10.2786 0.731801 -0.0259123 3.92302e-10 -1.79721e-10 5.60337e-10 -2.22167 -0.733487 0.20892 -2.03217e-16 0.0 -3.88251e-19 0.878582 -10.024 -5.11914 -7.35376 82.6585 7.97074 -4.79666 -2.88379 -19.8456 2.03217e-16 0.0 3.88251e-19 -9.53728 -35.5002 -11.6074 0.509757 43.3912 -0.00295467 1.0044 -14.5512 2.56453
107.567 80.4018 -0.323513 -62.7474 92.1334 -58.0687 -8.85099 13.1803 7.23414 -2.9488 -2.35255 1.5747 4.56992 6.84276 1.31747 -1.92204 -40.0949 1.88379 -0.0 0.0 0.0 -0.0 0.0 0.0 1.02735e-13 1.09258e-13 -7.09999e-14 99.6763 52.2474 -27.7691 -27.9841 -41.668 86.0452 -0.25545 -15.2082 -2.17723 1.25806e-10 -2.53202e-10 -1.73741e-09 2.44049e-10 -4.48404e-10 -3.00412e-09 1.25824e-10 -2.53212e-10 -1.73744e-09 7.73091 5.47488 0.417314 1.25806e-10 -2.532e-10 -1.73741e-09 2.90554 0.965183 0.102902 1.25811e-10 -2.53203e-10 -1.73741e-09 10.2786 0.731801 0.0259123 1.25807e-10 -2.53202e-10 -1.7374e-09 2.22167 -0.733487 -0.20892 1.02624e-13 1.09259e-13 -7.11975e-14 -95.8874 24.1014 33.1816 27.1891 -43.432 -90.3911 0.326931 -15.9496 2.30303 6.09576e-10 -7.33747e-10 5.7018e-10 1.04798e-09 -1.26394e-09 9.86113e-10 6.09575e-10 -7.33749e-10 5.70183e-10 -7.73091 5.47488 -0.417314 6.09579e-10 -7.33745e-10 5.70185e-10 -2.90554 0.965183 -0.102902 6.09573e-10 -7.33746e-10 5.70182e-10 -10.2786 0.731801 -0.0259123 6.09583e-10 -7.33744e-10 5.70179e-10 -2.22167 -0.733487 0.20892 -2.03217e-16 0.0 -3.88251e-19 -3.11614 -16.4022 -5.69257 -42.8981 88.457 43.4371 -4.30385 -2.21406 -18.2365 2.03217e-16 0.0 3.88251e-19 -12.4513 -33.3296 -11.5303 0.596297 46.5636 -0.131167 1.03436 -17.6148 2.37457
